<mxfile host="Electron" agent="Mozilla/5.0 (X11; Linux x86_64) AppleWebKit/537.36 (KHTML, like Gecko) draw.io/26.0.16 Chrome/132.0.6834.196 Electron/34.2.0 Safari/537.36" version="26.0.16">
  <diagram name="Page-1" id="GGL67-tkHrbgC_uqFUn7">
    <mxGraphModel dx="1434" dy="835" grid="1" gridSize="10" guides="1" tooltips="1" connect="1" arrows="1" fold="1" page="1" pageScale="1" pageWidth="850" pageHeight="1100" math="0" shadow="0">
      <root>
        <mxCell id="0" />
        <mxCell id="1" parent="0" />
        <mxCell id="Xx-TET3poisACI4UWlZy-7" style="edgeStyle=orthogonalEdgeStyle;rounded=0;orthogonalLoop=1;jettySize=auto;html=1;entryX=0;entryY=0.5;entryDx=0;entryDy=0;" edge="1" parent="1" source="Xx-TET3poisACI4UWlZy-1" target="Xx-TET3poisACI4UWlZy-8">
          <mxGeometry relative="1" as="geometry">
            <mxPoint x="170" y="81" as="targetPoint" />
          </mxGeometry>
        </mxCell>
        <mxCell id="Xx-TET3poisACI4UWlZy-1" value="User" style="shape=umlActor;verticalLabelPosition=bottom;verticalAlign=top;html=1;outlineConnect=0;" vertex="1" parent="1">
          <mxGeometry x="40" y="41" width="40" height="80" as="geometry" />
        </mxCell>
        <mxCell id="Xx-TET3poisACI4UWlZy-11" style="edgeStyle=orthogonalEdgeStyle;rounded=0;orthogonalLoop=1;jettySize=auto;html=1;entryX=0.5;entryY=0;entryDx=0;entryDy=0;" edge="1" parent="1" source="Xx-TET3poisACI4UWlZy-8" target="Xx-TET3poisACI4UWlZy-10">
          <mxGeometry relative="1" as="geometry" />
        </mxCell>
        <mxCell id="Xx-TET3poisACI4UWlZy-12" value="&lt;font style=&quot;font-size: 12px;&quot;&gt;Handle Params&lt;/font&gt;" style="edgeLabel;html=1;align=center;verticalAlign=middle;resizable=0;points=[];" vertex="1" connectable="0" parent="Xx-TET3poisACI4UWlZy-11">
          <mxGeometry x="-0.2271" y="1" relative="1" as="geometry">
            <mxPoint as="offset" />
          </mxGeometry>
        </mxCell>
        <mxCell id="Xx-TET3poisACI4UWlZy-16" style="edgeStyle=orthogonalEdgeStyle;rounded=0;orthogonalLoop=1;jettySize=auto;html=1;" edge="1" parent="1" source="Xx-TET3poisACI4UWlZy-8" target="Xx-TET3poisACI4UWlZy-15">
          <mxGeometry relative="1" as="geometry" />
        </mxCell>
        <mxCell id="Xx-TET3poisACI4UWlZy-8" value="get_next_line(int fd)" style="rounded=0;whiteSpace=wrap;html=1;" vertex="1" parent="1">
          <mxGeometry x="120" y="56.5" width="190" height="49" as="geometry" />
        </mxCell>
        <mxCell id="Xx-TET3poisACI4UWlZy-14" style="edgeStyle=orthogonalEdgeStyle;rounded=0;orthogonalLoop=1;jettySize=auto;html=1;entryX=0.5;entryY=0;entryDx=0;entryDy=0;fillColor=#f8cecc;strokeColor=#b85450;" edge="1" parent="1" source="Xx-TET3poisACI4UWlZy-10" target="Xx-TET3poisACI4UWlZy-13">
          <mxGeometry relative="1" as="geometry" />
        </mxCell>
        <mxCell id="Xx-TET3poisACI4UWlZy-10" value="se fd &amp;lt; 0 ou &amp;gt; 1024" style="rounded=0;whiteSpace=wrap;html=1;" vertex="1" parent="1">
          <mxGeometry x="120" y="160" width="120" height="60" as="geometry" />
        </mxCell>
        <mxCell id="Xx-TET3poisACI4UWlZy-13" value="Exit" style="rounded=0;whiteSpace=wrap;html=1;fillColor=#a20025;strokeColor=#6F0000;fontColor=#ffffff;" vertex="1" parent="1">
          <mxGeometry x="120" y="270" width="120" height="60" as="geometry" />
        </mxCell>
        <mxCell id="Xx-TET3poisACI4UWlZy-18" style="edgeStyle=orthogonalEdgeStyle;rounded=0;orthogonalLoop=1;jettySize=auto;html=1;" edge="1" parent="1" source="Xx-TET3poisACI4UWlZy-15" target="Xx-TET3poisACI4UWlZy-17">
          <mxGeometry relative="1" as="geometry" />
        </mxCell>
        <mxCell id="Xx-TET3poisACI4UWlZy-15" value="Read File" style="rounded=0;whiteSpace=wrap;html=1;" vertex="1" parent="1">
          <mxGeometry x="360" y="56.5" width="180" height="49" as="geometry" />
        </mxCell>
        <mxCell id="Xx-TET3poisACI4UWlZy-17" value="Temp buffer" style="rounded=0;whiteSpace=wrap;html=1;" vertex="1" parent="1">
          <mxGeometry x="360" y="150" width="180" height="49" as="geometry" />
        </mxCell>
      </root>
    </mxGraphModel>
  </diagram>
</mxfile>
